<svg xmlns="http://www.w3.org/2000/svg" version="1.1" xmlns:xlink="http://www.w3.org/1999/xlink" xmlns:svgjs="http://svgjs.dev/svgjs" width="1000" height="106" viewBox="0 0 1000 106"><g transform="matrix(1,0,0,1,-0.6060598960987136,0.16610492348200268)"><svg viewBox="0 0 396 42" data-background-color="#ffffff" preserveAspectRatio="xMidYMid meet" height="106" width="1000" xmlns="http://www.w3.org/2000/svg" xmlns:xlink="http://www.w3.org/1999/xlink"><g id="tight-bounds" transform="matrix(1,0,0,1,0.24000028114494398,-0.06581455363397026)"><svg viewBox="0 0 395.52 42.131625478907026" height="42.131625478907026" width="395.52"><g><svg viewBox="0 0 463.4606929671191 49.36881153996102" height="42.131625478907026" width="395.52"><g><rect width="3.2215125711195327" height="42.86727485380117" x="56.28590141401126" y="3.250768343079926" fill="#ffffff" opacity="1" stroke-width="0" stroke="transparent" fill-opacity="1" class="rect-o-0" data-fill-palette-color="primary" rx="1%" id="o-0" data-palette-color="#ffffff"></rect></g><g transform="matrix(1,0,0,1,67.9406929671191,6.823041247563356)"><svg viewBox="0 0 395.52 35.72272904483431" height="35.72272904483431" width="395.52"><g id="textblocktransform"><svg viewBox="0 0 395.52 35.72272904483431" height="35.72272904483431" width="395.52" id="textblock"><g><svg viewBox="0 0 395.52 35.72272904483431" height="35.72272904483431" width="395.52"><g transform="matrix(1,0,0,1,0,0)"><svg width="395.52" viewBox="2.1500000953674316 -34.29999923706055 384.7200012207031 34.75" height="35.72272904483431" data-palette-color="#ffffff"><path d="M28.1-7.9L28.1-1.6Q25 0.4 19.4 0.4L19.4 0.4Q11.9 0.4 7.03-4.33 2.15-9.05 2.15-16.85L2.15-16.85Q2.15-24.5 6.98-29.33 11.8-34.15 19.4-34.15L19.4-34.15Q24.95-34.15 28.05-32.3L28.05-32.3 28.05-26.15Q24.25-28.35 19.65-28.35 15.05-28.35 11.98-25.23 8.9-22.1 8.9-16.85 8.9-11.6 11.98-8.5 15.05-5.4 20-5.4L20-5.4Q24.75-5.4 28.1-7.9L28.1-7.9ZM60.1-33.7L60.1-12.95Q60.1-6.4 56.57-2.98 53.05 0.45 46.9 0.45L46.9 0.45Q40.9 0.45 37.32-2.93 33.75-6.3 33.75-12.6L33.75-12.6 33.75-33.7 40.05-33.7 40.05-12.65Q40.05-8.8 41.95-7.08 43.85-5.35 46.9-5.35L46.9-5.35Q53.8-5.35 53.8-12.9L53.8-12.9 53.8-33.7 60.1-33.7ZM77.3-28.5L77.3-28.5 73.2-28.5 73.2-17.5 77.4-17.5Q80.3-17.5 81.75-18.98 83.2-20.45 83.2-23.1L83.2-23.1Q83.2-25.7 81.67-27.1 80.15-28.5 77.3-28.5ZM73.2-12.3L73.2 0 66.9 0 66.9-33.7 77.3-33.7Q83.05-33.7 86.32-30.8 89.6-27.9 89.6-23.05L89.6-23.05Q89.55-19.45 87.85-16.98 86.15-14.5 83.2-13.3L83.2-13.3 91.85 0 84.3 0 76.65-12.3 73.2-12.3ZM103.04-33.7L103.04 0 96.74 0 96.74-33.7 103.04-33.7ZM140.94-16.95L140.94-16.95Q140.94-9.15 136.62-4.4 132.29 0.35 125.04 0.35 117.79 0.35 113.44-4.4 109.09-9.15 109.09-16.95L109.09-16.95Q109.09-24.8 113.42-29.55 117.74-34.3 124.99-34.3L124.99-34.3Q132.34-34.3 136.64-29.58 140.94-24.85 140.94-16.95ZM115.84-16.95L115.84-16.95Q115.84-11.65 118.34-8.55 120.84-5.45 125.04-5.45L125.04-5.45Q129.29-5.45 131.74-8.53 134.19-11.6 134.19-16.95 134.19-22.3 131.74-25.4 129.29-28.5 124.99-28.5L124.99-28.5Q120.74-28.5 118.29-25.4 115.84-22.3 115.84-16.95ZM172.74-33.7L172.74-12.95Q172.74-6.4 169.21-2.98 165.69 0.45 159.54 0.45L159.54 0.45Q153.54 0.45 149.96-2.93 146.39-6.3 146.39-12.6L146.39-12.6 146.39-33.7 152.69-33.7 152.69-12.65Q152.69-8.8 154.59-7.08 156.49-5.35 159.54-5.35L159.54-5.35Q166.44-5.35 166.44-12.9L166.44-12.9 166.44-33.7 172.74-33.7ZM199.89-9.45L199.89-9.45Q199.89-4.95 196.66-2.27 193.44 0.4 188.19 0.4L188.19 0.4Q182.49 0.4 178.74-1.75L178.74-1.75 178.74-8.2Q183.04-5.1 188.14-5.1L188.14-5.1Q190.44-5.1 191.84-6.23 193.24-7.35 193.24-9.25L193.24-9.25Q193.24-10.15 192.89-10.85 192.54-11.55 191.46-12.25 190.39-12.95 189.81-13.25 189.24-13.55 187.44-14.35L187.44-14.35Q186.94-14.6 186.69-14.7L186.69-14.7Q184.84-15.55 183.69-16.23 182.54-16.9 181.19-18.05 179.84-19.2 179.16-20.8 178.49-22.4 178.49-24.45L178.49-24.45Q178.49-28.75 181.66-31.35 184.84-33.95 190.09-33.95L190.09-33.95Q194.84-33.95 198.29-32.3L198.29-32.3 198.29-26.2Q194.54-28.45 190.29-28.45L190.29-28.45Q187.94-28.45 186.61-27.4 185.29-26.35 185.29-24.7 185.29-23.05 186.71-21.98 188.14-20.9 190.99-19.6L190.99-19.6Q192.99-18.7 194.24-18.03 195.49-17.35 196.96-16.15 198.44-14.95 199.16-13.28 199.89-11.6 199.89-9.45ZM242.43-7.9L242.43-1.6Q239.33 0.4 233.73 0.4L233.73 0.4Q226.23 0.4 221.36-4.33 216.48-9.05 216.48-16.85L216.48-16.85Q216.48-24.5 221.31-29.33 226.13-34.15 233.73-34.15L233.73-34.15Q239.28-34.15 242.38-32.3L242.38-32.3 242.38-26.15Q238.58-28.35 233.98-28.35 229.38-28.35 226.31-25.23 223.23-22.1 223.23-16.85 223.23-11.6 226.31-8.5 229.38-5.4 234.33-5.4L234.33-5.4Q239.08-5.4 242.43-7.9L242.43-7.9ZM257.28-14.25L257.28-14.25 256.83-12.8 266.33-12.8 265.88-14.3Q264.18-19.7 263.1-23.38 262.03-27.05 261.78-28L261.78-28 261.58-29Q261.13-26.5 257.28-14.25ZM255.18-7.65L252.78 0 246.18 0 257.58-33.7 265.73-33.7 277.13 0 270.33 0 267.93-7.65 255.18-7.65ZM302.33-9.45L302.33-9.45Q302.33-4.95 299.1-2.27 295.88 0.4 290.63 0.4L290.63 0.4Q284.93 0.4 281.18-1.75L281.18-1.75 281.18-8.2Q285.48-5.1 290.58-5.1L290.58-5.1Q292.88-5.1 294.28-6.23 295.68-7.35 295.68-9.25L295.68-9.25Q295.68-10.15 295.33-10.85 294.98-11.55 293.9-12.25 292.83-12.95 292.25-13.25 291.68-13.55 289.88-14.35L289.88-14.35Q289.38-14.6 289.13-14.7L289.13-14.7Q287.28-15.55 286.13-16.23 284.98-16.9 283.63-18.05 282.28-19.2 281.6-20.8 280.93-22.4 280.93-24.45L280.93-24.45Q280.93-28.75 284.1-31.35 287.28-33.95 292.53-33.95L292.53-33.95Q297.28-33.95 300.73-32.3L300.73-32.3 300.73-26.2Q296.98-28.45 292.73-28.45L292.73-28.45Q290.38-28.45 289.05-27.4 287.73-26.35 287.73-24.7 287.73-23.05 289.15-21.98 290.58-20.9 293.43-19.6L293.43-19.6Q295.43-18.7 296.68-18.03 297.93-17.35 299.4-16.15 300.88-14.95 301.6-13.28 302.33-11.6 302.33-9.45ZM314.57-33.7L314.57 0 308.27 0 308.27-33.7 314.57-33.7ZM328.27-14.05L328.27 0 321.97 0 321.97-33.7 329.12-33.7 337.22-19.65Q339.22-16.2 340.8-13.23 342.37-10.25 342.92-9L342.92-9 343.47-7.75Q343.07-11.9 343.07-19.65L343.07-19.65 343.07-33.7 349.42-33.7 349.42 0 342.22 0 334.02-14Q332.07-17.3 330.5-20.33 328.92-23.35 328.32-24.7L328.32-24.7 327.72-26.1Q328.27-21.35 328.27-14.05L328.27-14.05ZM386.87-16.95L386.87-16.95Q386.87-9.15 382.54-4.4 378.22 0.35 370.97 0.35 363.72 0.35 359.37-4.4 355.02-9.15 355.02-16.95L355.02-16.95Q355.02-24.8 359.34-29.55 363.67-34.3 370.92-34.3L370.92-34.3Q378.27-34.3 382.57-29.58 386.87-24.85 386.87-16.95ZM361.77-16.95L361.77-16.95Q361.77-11.65 364.27-8.55 366.77-5.45 370.97-5.45L370.97-5.45Q375.22-5.45 377.67-8.53 380.12-11.6 380.12-16.95 380.12-22.3 377.67-25.4 375.22-28.5 370.92-28.5L370.92-28.5Q366.67-28.5 364.22-25.4 361.77-22.3 361.77-16.95Z" opacity="1" transform="matrix(1,0,0,1,0,0)" fill="#ffffff" class="wordmark-text-0" data-fill-palette-color="primary" id="text-0"></path></svg></g></svg></g></svg></g></svg></g><g><svg viewBox="0 0 47.852622432022955 49.36881153996102" height="49.36881153996102" width="47.852622432022955"><g><svg xmlns="http://www.w3.org/2000/svg" xmlns:xlink="http://www.w3.org/1999/xlink" version="1.1" x="0" y="0" viewBox="20.37700080871582 21.738000869750977 58.73500061035156 60.59599304199219" enable-background="new 0 0 100 100" xml:space="preserve" height="49.36881153996102" width="47.852622432022955" class="icon-icon-0" data-fill-palette-color="accent" id="icon-0"><path d="M74.517 45.093c1.383 3.054 2.16 6.439 2.16 10.004 0 13.42-10.918 24.337-24.338 24.337-4.653 0-9.004-1.315-12.705-3.59 4.192 4.017 9.875 6.49 16.14 6.49 12.889 0 23.338-10.449 23.338-23.338C79.111 53.787 77.403 48.977 74.517 45.093z" fill="#ffffff" data-fill-palette-color="accent"></path><path d="M68.768 38.413c1.383 3.054 2.16 6.439 2.16 10.003 0 13.42-10.918 24.337-24.338 24.337-4.653 0-9.004-1.315-12.705-3.589 4.192 4.016 9.875 6.489 16.139 6.489 12.889 0 23.338-10.449 23.338-23.338C73.362 47.107 71.653 42.297 68.768 38.413z" fill="#ffffff" data-fill-palette-color="accent"></path><path d="M43.715 21.738c-12.889 0-23.338 10.449-23.338 23.338s10.449 23.338 23.338 23.338 23.338-10.449 23.338-23.338S56.604 21.738 43.715 21.738zM27.176 33.12c2.06-2.844 4.828-5.121 8.007-6.586 1-0.462 2.191-0.024 2.653 0.979 0.462 1.003 0.023 2.191-0.979 2.653-2.557 1.178-4.783 3.01-6.44 5.299-0.392 0.54-1.002 0.827-1.622 0.827-0.406 0-0.816-0.124-1.171-0.38C26.729 35.265 26.528 34.015 27.176 33.12zM30.02 57.535c-0.356 0.26-0.769 0.385-1.178 0.385-0.617 0-1.226-0.284-1.617-0.82-2.071-2.837-3.379-6.177-3.78-9.659-0.127-1.098 0.66-2.09 1.757-2.216 1.091-0.126 2.09 0.66 2.217 1.757 0.322 2.797 1.373 5.479 3.037 7.759C31.106 55.632 30.911 56.883 30.02 57.535zM50.037 64.483c-2.036 0.663-4.163 0.999-6.322 0.999-1.354 0-2.71-0.134-4.027-0.398-1.083-0.217-1.785-1.271-1.568-2.354 0.217-1.083 1.275-1.787 2.354-1.568 2.747 0.551 5.663 0.384 8.326-0.482 1.055-0.34 2.18 0.233 2.521 1.283C51.661 63.013 51.087 64.142 50.037 64.483zM43.715 58.438c-7.38 0-13.362-5.983-13.362-13.362s5.983-13.362 13.362-13.362c7.38 0 13.362 5.983 13.362 13.362S51.095 58.438 43.715 58.438zM55.762 33.939c-1.922-2.077-4.353-3.629-7.028-4.488-1.052-0.337-1.631-1.464-1.293-2.516s1.462-1.632 2.516-1.293c3.33 1.069 6.353 2.999 8.741 5.58 0.75 0.811 0.701 2.076-0.109 2.826-0.385 0.356-0.872 0.532-1.358 0.532C56.692 34.581 56.156 34.365 55.762 33.939zM61.489 55.107c-0.368 0.65-1.046 1.016-1.743 1.016-0.333 0-0.672-0.083-0.982-0.259-0.962-0.544-1.3-1.764-0.757-2.726 1.383-2.446 2.114-5.234 2.114-8.063 0-1.104 0.896-2.038 2-2.038s2 0.857 2 1.962v0.076C64.121 48.593 63.211 52.062 61.489 55.107z" fill="#ffffff" data-fill-palette-color="accent"></path></svg></g></svg></g></svg></g><defs></defs></svg><rect width="395.52" height="42.131625478907026" fill="none" stroke="none" visibility="hidden"></rect></g></svg></g></svg>